<?xml version="1.0" encoding="UTF-8" standalone="no"?>
<svg
   xmlns="http://www.w3.org/2000/svg"
   viewBox="0 0 2963.32 2963.32"
   height="29.633mm"
   width="29.633mm">
   <circle
   id="circle2"
   r="1284"
   cy="1482.4"
   cx="1480.8"
   fill="#FEFEFE" />
   <g
   id="g6"
   transform="matrix(0,-1.5371855,1.5445444,0,-1217.9378,4547.0918)">
    <text
   id="text4"
   y="1481.66"
   x="1481.66"
   style="font-style:normal;font-size:150px;font-family:arial;fill:#0f62ac"
   fill="#0F62AC">Marketing</text>
   </g>
    <path
   id="path8"
   d="m1162.3 2255.5h418.8c180.61 0 322.3-74.2 425.06-222.59 102.75-148.37 154.17-333.18 154.17-554.45 0-175.93-29.44-321.49-88.23-436.66-58.81-115.15-125.39-199.36-199.62-252.61-74.22-53.22-187.13-79.83-338.58-79.83h-371.6v1546.1z"
   fill="#0F62AC" />
    <path
   id="path10"
   d="m1562.5 993.67c59.93 0 111.23 16.04 153.95 48.14 42.7 32.1 78.48 87.97 107.23 167.63 28.79 79.68 43.21 166.34 43.21 259.99 0 132.9-25.25 248.62-75.68 347.16-50.43 98.56-127.56 147.8-231.39 147.8h-117.47v-970.72h120.15z"
   fill="#FEFEFE" />
    <polygon
   id="polygon12"
   points="1869.4 1137.7 2133.1 690.13 1970.3 452.07 1765.4 908.2"
   fill="#FEFEFE" />
    <polygon
   id="polygon14"
   points="1872.8 1074.7 2098.7 691.27 1975.6 511.3 1797.3 908.18"
   fill="#F68E34" />
</svg>
